<svg width="201" height="108" viewBox="0 0 201 108" fill="none" xmlns="http://www.w3.org/2000/svg">
<g filter="url(#filter0_d_1_16)">
<path d="M57.272 84.184C56.952 84.44 56.504 84.632 55.928 84.76C55.352 84.888 54.68 84.888 53.912 84.76L17.24 74.296C13.016 73.08 9.816 71.384 7.64 69.208C5.464 67.032 4.376 63.448 4.376 58.456V51.544C4.376 48.6 4.76 46.2 5.528 44.344C6.296 42.424 7.416 40.856 8.888 39.64L21.272 29.176C22.296 28.344 23.512 27.608 24.92 26.968C26.328 26.328 27.896 25.752 29.624 25.24L66.296 14.776C67.896 14.52 69.048 14.712 69.752 15.352C70.52 15.928 70.904 17.048 70.904 18.712V31.384C70.904 32.28 70.776 33.048 70.52 33.688C70.264 34.264 69.912 34.744 69.464 35.128L56.984 45.592C56.664 45.848 56.28 46.072 55.832 46.264C55.384 46.456 54.904 46.616 54.392 46.744L49.112 48.088L66.68 52.792C68.152 53.048 69.208 53.56 69.848 54.328C70.552 55.032 70.904 56.152 70.904 57.688V70.36C70.904 71.192 70.776 71.896 70.52 72.472C70.328 72.984 70.04 73.4 69.656 73.72L57.272 84.184ZM66.488 73.336C67.704 73.592 68.568 73.464 69.08 72.952C69.656 72.44 69.944 71.576 69.944 70.36V57.688C69.944 56.472 69.656 55.576 69.08 55C68.568 54.36 67.704 53.944 66.488 53.752L38.936 46.36C38.296 46.232 37.848 46.04 37.592 45.784C37.4 45.528 37.304 45.112 37.304 44.536C37.304 43.96 37.4 43.544 37.592 43.288C37.848 43.032 38.296 42.84 38.936 42.712L66.488 35.32C67.704 35.128 68.568 34.744 69.08 34.168C69.656 33.528 69.944 32.6 69.944 31.384V18.712C69.944 17.496 69.656 16.632 69.08 16.12C68.568 15.608 67.704 15.48 66.488 15.736L29.912 26.2C25.944 27.352 22.904 28.952 20.792 31C18.744 32.984 17.72 36.344 17.72 41.08V47.992C17.72 52.728 18.744 56.12 20.792 58.168C22.904 60.152 25.944 61.72 29.912 62.872L66.488 73.336ZM61.304 62.104V63.064L32.504 54.808C30.904 54.36 29.56 53.656 28.472 52.696C27.448 51.672 26.936 50.104 26.936 47.992V41.08C26.936 38.968 27.448 37.464 28.472 36.568C29.56 35.672 30.904 35 32.504 34.552L61.304 26.296V27.256L32.696 35.512C31.352 35.896 30.2 36.472 29.24 37.24C28.344 38.008 27.896 39.288 27.896 41.08V47.992C27.896 49.784 28.344 51.128 29.24 52.024C30.2 52.856 31.352 53.464 32.696 53.848L61.304 62.104ZM95.8115 99.064H81.8915C80.2915 99.064 79.1075 98.68 78.3395 97.912C77.5715 97.208 77.2835 96.088 77.4755 94.552L88.9955 15.064C89.0595 14.232 89.1875 13.528 89.3795 12.952C89.6355 12.376 89.9875 11.896 90.4355 11.512L102.82 1.144C103.14 0.887995 103.556 0.695995 104.068 0.567997C104.58 0.375996 105.156 0.279995 105.796 0.279995H119.716C121.316 0.279995 122.5 0.663996 123.268 1.432C124.036 2.136 124.324 3.25599 124.132 4.79199L112.612 84.28C112.484 85.112 112.292 85.816 112.036 86.392C111.844 87.032 111.524 87.48 111.076 87.736L98.6915 98.2C98.3075 98.456 97.8915 98.648 97.4435 98.776C96.9955 98.968 96.4515 99.064 95.8115 99.064ZM90.8195 84.184C90.6915 85.4 90.9155 86.264 91.4915 86.776C92.1315 87.352 93.0595 87.64 94.2755 87.64H108.196C109.412 87.64 110.244 87.352 110.692 86.776C111.204 86.264 111.524 85.4 111.652 84.184L123.172 4.696C123.3 3.48 123.044 2.616 122.404 2.10399C121.828 1.52799 120.932 1.23999 119.716 1.23999H105.796C104.58 1.23999 103.716 1.52799 103.204 2.10399C102.756 2.616 102.468 3.48 102.34 4.696L90.8195 84.184ZM111.556 9.88H112.516L102.531 79H101.572L111.556 9.88ZM134.913 84.76C133.313 85.016 132.129 84.824 131.361 84.184C130.657 83.608 130.305 82.488 130.305 80.824V68.152C130.305 67.256 130.433 66.52 130.689 65.944C130.945 65.304 131.297 64.76 131.745 64.312L144.129 53.944C144.449 53.688 144.833 53.464 145.281 53.272C145.729 53.08 146.241 52.92 146.817 52.792L152.097 51.448L134.529 46.744C133.057 46.488 131.969 46.008 131.265 45.304C130.625 44.536 130.305 43.384 130.305 41.848V29.176C130.305 28.344 130.401 27.64 130.593 27.064C130.785 26.488 131.073 26.04 131.457 25.72L143.937 15.352C144.257 15.096 144.705 14.904 145.281 14.776C145.857 14.648 146.529 14.648 147.297 14.776H147.393L183.969 25.24C188.193 26.456 191.393 28.152 193.569 30.328C195.745 32.504 196.833 36.088 196.833 41.08V47.992C196.833 50.936 196.417 53.368 195.585 55.288C194.817 57.144 193.729 58.68 192.321 59.896L179.841 70.36C178.881 71.192 177.697 71.928 176.289 72.568C174.945 73.144 173.377 73.72 171.585 74.296L134.913 84.76ZM183.681 62.872C187.649 61.72 190.657 60.152 192.705 58.168C194.817 56.12 195.873 52.728 195.873 47.992V41.08C195.873 36.344 194.817 32.984 192.705 31C190.657 28.952 187.649 27.352 183.681 26.2L147.105 15.736C145.889 15.48 144.993 15.608 144.417 16.12C143.905 16.632 143.649 17.496 143.649 18.712V31.384C143.649 32.6 143.905 33.528 144.417 34.168C144.993 34.744 145.889 35.128 147.105 35.32L174.657 42.712C175.297 42.84 175.713 43.032 175.905 43.288C176.161 43.544 176.289 43.96 176.289 44.536C176.289 45.112 176.161 45.528 175.905 45.784C175.713 46.04 175.297 46.232 174.657 46.36L147.105 53.752C145.889 53.944 144.993 54.36 144.417 55C143.905 55.576 143.649 56.472 143.649 57.688V70.36C143.649 71.576 143.905 72.44 144.417 72.952C144.993 73.464 145.889 73.592 147.105 73.336L183.681 62.872ZM181.089 54.808L152.289 63.064V62.104L180.897 53.848C182.241 53.464 183.361 52.856 184.257 52.024C185.217 51.128 185.697 49.784 185.697 47.992V41.08C185.697 39.288 185.217 38.008 184.257 37.24C183.361 36.472 182.241 35.896 180.897 35.512L152.289 27.256V26.296L181.089 34.552C182.689 35 184.001 35.672 185.025 36.568C186.113 37.464 186.657 38.968 186.657 41.08V47.992C186.657 50.104 186.113 51.672 185.025 52.696C184.001 53.656 182.689 54.36 181.089 54.808Z" fill="#FFD700"/>
</g>
<defs>
<filter id="filter0_d_1_16" x="0.375999" y="0.279997" width="200.457" height="106.784" filterUnits="userSpaceOnUse" color-interpolation-filters="sRGB">
<feFlood flood-opacity="0" result="BackgroundImageFix"/>
<feColorMatrix in="SourceAlpha" type="matrix" values="0 0 0 0 0 0 0 0 0 0 0 0 0 0 0 0 0 0 127 0" result="hardAlpha"/>
<feOffset dy="4"/>
<feGaussianBlur stdDeviation="2"/>
<feComposite in2="hardAlpha" operator="out"/>
<feColorMatrix type="matrix" values="0 0 0 0 0 0 0 0 0 0 0 0 0 0 0 0 0 0 0.25 0"/>
<feBlend mode="normal" in2="BackgroundImageFix" result="effect1_dropShadow_1_16"/>
<feBlend mode="normal" in="SourceGraphic" in2="effect1_dropShadow_1_16" result="shape"/>
</filter>
</defs>
</svg>
